<?xml version="1.0"?>
<svg xmlns="http://www.w3.org/2000/svg" viewBox="0 0 512 512" width="512px" height="512px"><g><g id="Solid"><path d="M256,168a88,88,0,0,1,0,176q-2.185,0-4.369-.109a119.164,119.164,0,0,1,3.3,16.089c.359,0,.711.02,1.072.02A104,104,0,1,0,152,256c0,.361.016.713.02,1.072a119.164,119.164,0,0,1,16.089,3.3Q168,258.186,168,256A88.1,88.1,0,0,1,256,168Z" data-original="#000000" class="active-path" data-old_color="#000000" fill="#FFFFFF"/><path d="M136,480A104,104,0,1,0,32,376,104.118,104.118,0,0,0,136,480Zm37.072-23.79-8-13.856,13.856-8,8,13.856ZM224,384H208V368h16Zm-15.79-58.928,8,13.856-13.856,8-8-13.856Zm-5.856,80,13.856,8-8,13.856-13.856-8ZM173.072,295.79l13.856,8-8,13.856-13.856-8ZM128,288h16v16H128Zm0,40h16v44.687l29.657,29.656-11.314,11.314-32-32A8,8,0,0,1,128,376Zm0,120h16v16H128ZM98.928,295.79l8,13.856-13.856,8-8-13.856ZM93.072,434.354l13.856,8-8,13.856-13.856-8ZM63.79,325.072l13.856,8-8,13.856-13.856-8ZM48,368H64v16H48Zm21.646,37.072,8,13.856-13.856,8-8-13.856Z" data-original="#000000" class="active-path" data-old_color="#000000" fill="#FFFFFF"/><path d="M97.954,230.936A162.708,162.708,0,0,0,96,256c0,2.266.063,4.538.16,6.807A119.478,119.478,0,0,1,136,256,120,120,0,1,1,256,376a119.47,119.47,0,0,1-6.806,39.838,161.566,161.566,0,0,0,35.706-2.447,8,8,0,0,1,8.444,4l21.83,39.542,45.519-19.506-13.583-43.1a8,8,0,0,1,2.922-8.872,160.665,160.665,0,0,0,37.678-38.6,8,8,0,0,1,8.8-3.137l43.424,12.524,18.392-45.976L418.255,289.4a8,8,0,0,1-4.209-8.332,161.533,161.533,0,0,0-.655-53.964,8,8,0,0,1,4-8.443l39.541-21.831-19.506-45.52-43.1,13.584a8,8,0,0,1-8.872-2.922,160.647,160.647,0,0,0-38.6-37.678,8,8,0,0,1-3.136-8.8l12.523-43.424L310.261,53.677,289.4,93.745a8,8,0,0,1-8.332,4.209,162.161,162.161,0,0,0-53.964.655,8,8,0,0,1-8.444-4l-21.83-39.542L151.307,74.571l13.583,43.105a8,8,0,0,1-2.922,8.872,160.665,160.665,0,0,0-37.678,38.6,8,8,0,0,1-8.8,3.137L72.069,155.763,53.677,201.739,93.745,222.6A8,8,0,0,1,97.954,230.936ZM317.977,420.921l-6.3-14.706,14.706-6.3,6.3,14.706ZM422.383,313.937l-5.943,14.855-14.855-5.942L407.527,308Zm-7.765-134.62,6.3,14.706-14.707,6.3-6.3-14.706Zm-100.681-89.7,14.855,5.942-5.941,14.856L308,104.473ZM194.023,91.079l6.3,14.706-14.706,6.3-6.3-14.706ZM95.56,183.208l14.855,5.942-5.942,14.855-14.856-5.942Z" data-original="#000000" class="active-path" data-old_color="#000000" fill="#FFFFFF"/></g></g> </svg>
