<?xml version="1.0"?>
<svg xmlns="http://www.w3.org/2000/svg" xmlns:xlink="http://www.w3.org/1999/xlink" version="1.1" id="Layer_1" x="0px" y="0px" viewBox="0 0 512 512" style="enable-background:new 0 0 512 512;" xml:space="preserve" width="512px" height="512px"><g><g>
	<g>
		<path d="M205.64,43.527c0.44,2.37,1.72,8.171,4.57,15.001c1.98,4.77,4.74,10.041,8.511,15.001    c7.891,10.351,20.211,19.281,39.273,19.281c16.691,0,29.112-6.32,37.812-19.281c0.81-1.2,1.59-2.46,2.33-3.77    c2.15-3.81,3.79-7.68,5.02-11.231c2.64-7.59,3.45-13.771,3.6-15.001H205.64z" data-original="#000000" class="active-path" data-old_color="#000000" fill="#FFFFFF"/>
	</g>
</g><g>
	<g>
		<path d="M405.617,82.554l-0.005,0.004l-70.294-27.992c-0.8,3.95-2.07,8.981-4.06,14.521c-1.54,4.35-3.52,9.011-6.07,13.731    c-0.1,0.21-0.21,0.42-0.33,0.63c-14.111,25.752-37.232,39.363-66.864,39.363c-29.352,0-52.993-13.421-68.364-38.802    c-0.36-0.59-0.71-1.19-1.06-1.78c-2.67-4.65-4.82-9.261-6.54-13.541c-2.21-5.51-3.69-10.481-4.66-14.291l-70.935,28.142v0.003    L0,207.294l85.388,82.286l21.046-21.572v200.465h299.179V268.056l20.999,21.524L512,207.294L405.617,82.554z" data-original="#000000" class="active-path" data-old_color="#000000" fill="#FFFFFF"/>
	</g>
</g></g> </svg>
